# xmcd
#
# Track frame offsets:
#	150
#	14174
#	28098
#	40909
#	54110
#	68145
#	83637
#	97686
#	111759
#	125892
#	140175
#	154414
#	167373
#	181678
#	195350
#	209181
#	222883
#	234499
#	247921
#	261294
#	275796
#	290756
#	305433
#	320148
#	334463
#
# Disc length: 4649 seconds
# Revision: 0
# Processed by: cddbd v1.5.2PL0 Copyright (c) Steve Scherf et al.
# Submitted via: dBpowerAMP V12.0
#
DISCID=7e122719
DTITLE=Charley Patton - The Essential Collection
DYEAR=2013
DGENRE=Blues
TTITLE0=Mississippi Boweavil Blues
TTITLE1=Screamin' and Hollerin' Blues
TTITLE2=Down The Dirt Road Blues
TTITLE3=Pony Blues
TTITLE4=Banty Rooster Blues
TTITLE5=It Won't Be Long
TTITLE6=Pea Vine Blues
TTITLE7=Tom Rushen Blues
TTITLE8=A Spooful Blues
TTITLE9=Shake It and Break It
TTITLE10=Prayer of Death, Part 1
TTITLE11=Prayer of Death, Part 2
TTITLE12=Lord I'm Discouraged
TTITLE13=I'm Goin' Home
TTITLE14=Going To Move To Alabama
TTITLE15=Elder Greene Blues
TTITLE16=Circle Round The Moon
TTITLE17=Devil Sent The Rain Blues
TTITLE18=Mean Black Cat Blues
TTITLE19=Frankie and Albert
TTITLE20=Some These I'll Be Gone
TTITLE21=Green River Blues
TTITLE22=Hammer Blues
TTITLE23=Magnolia Blues
TTITLE24=When Your Way Gets Back
EXTD=
EXTT0=
EXTT1=
EXTT2=
EXTT3=
EXTT4=
EXTT5=
EXTT6=
EXTT7=
EXTT8=
EXTT9=
EXTT10=
EXTT11=
EXTT12=
EXTT13=
EXTT14=
EXTT15=
EXTT16=
EXTT17=
EXTT18=
EXTT19=
EXTT20=
EXTT21=
EXTT22=
EXTT23=
EXTT24=
PLAYORDER=
